<?xml version="1.0" encoding="UTF-8" standalone="no"?>
<!-- Generator: Adobe Illustrator 21.1.0, SVG Export Plug-In . SVG Version: 6.00 Build 0)  -->

<svg
   version="1.1"
   id="Layer_1"
   x="0px"
   y="0px"
   width="1000"
   height="601.51074"
   viewBox="0 0 1000 601.51072"
   xml:space="preserve"
   xmlns="http://www.w3.org/2000/svg"
   xmlns:svg="http://www.w3.org/2000/svg"
   xmlns:rdf="http://www.w3.org/1999/02/22-rdf-syntax-ns#"
   xmlns:cc="http://creativecommons.org/ns#"
   xmlns:dc="http://purl.org/dc/elements/1.1/"><metadata
   id="metadata36"><rdf:RDF><cc:Work
       rdf:about=""><dc:format>image/svg+xml</dc:format><dc:type
         rdf:resource="http://purl.org/dc/dcmitype/StillImage" /></cc:Work></rdf:RDF></metadata><defs
   id="defs34"><linearGradient
     y2="11.1342"
     x2="37.808601"
     y1="11.1342"
     x1="12.6028"
     gradientUnits="userSpaceOnUse"
     id="SVGID_1_"><stop
       id="stop26"
       style="stop-color:#EC008C"
       offset="0.1953" /><stop
       id="stop28"
       style="stop-color:#2E3192"
       offset="1" /></linearGradient><linearGradient
     y2="22.268499"
     x2="75.616898"
     y1="44.537498"
     x1="75.616898"
     gradientUnits="userSpaceOnUse"
     id="SVGID_2_"><stop
       id="stop33"
       style="stop-color:#BCD85F"
       offset="0.1" /><stop
       id="stop35"
       style="stop-color:#B3D35E"
       offset="0.1956" /><stop
       id="stop37"
       style="stop-color:#9BC45B"
       offset="0.3515" /><stop
       id="stop39"
       style="stop-color:#73AC57"
       offset="0.5484" /><stop
       id="stop41"
       style="stop-color:#3C8B51"
       offset="0.7762" /><stop
       id="stop43"
       style="stop-color:#00664B"
       offset="1" /></linearGradient><linearGradient
     y2="11.1342"
     x2="88.219597"
     y1="11.1342"
     x1="63.014198"
     gradientUnits="userSpaceOnUse"
     id="SVGID_3_"><stop
       id="stop48"
       style="stop-color:#BCD85F"
       offset="0.1" /><stop
       id="stop50"
       style="stop-color:#B3D35E"
       offset="0.1956" /><stop
       id="stop52"
       style="stop-color:#9BC45B"
       offset="0.3515" /><stop
       id="stop54"
       style="stop-color:#73AC57"
       offset="0.5484" /><stop
       id="stop56"
       style="stop-color:#3C8B51"
       offset="0.7762" /><stop
       id="stop58"
       style="stop-color:#00664B"
       offset="1" /></linearGradient><linearGradient
     y2="22.268499"
     x2="56.7127"
     y1="44.537498"
     x1="56.7127"
     gradientUnits="userSpaceOnUse"
     id="SVGID_4_"><stop
       id="stop63"
       style="stop-color:#FBB040"
       offset="0" /><stop
       id="stop65"
       style="stop-color:#DB801E"
       offset="0.5" /><stop
       id="stop67"
       style="stop-color:#D77220"
       offset="0.5999" /><stop
       id="stop69"
       style="stop-color:#CC4E26"
       offset="0.7878" /><stop
       id="stop71"
       style="stop-color:#BE1E2D"
       offset="1" /></linearGradient><linearGradient
     y2="22.268499"
     x2="107.124"
     y1="44.537498"
     x1="107.124"
     gradientUnits="userSpaceOnUse"
     id="SVGID_5_"><stop
       id="stop76"
       style="stop-color:#49C0B6"
       offset="0.2011" /><stop
       id="stop78"
       style="stop-color:#3DB3B7"
       offset="0.3893" /><stop
       id="stop80"
       style="stop-color:#1C90BA"
       offset="0.7379" /><stop
       id="stop82"
       style="stop-color:#0072BC"
       offset="1" /></linearGradient><linearGradient
     y2="22.268499"
     x2="18.9042"
     y1="44.537498"
     x1="18.9042"
     gradientUnits="userSpaceOnUse"
     id="SVGID_6_"><stop
       id="stop87"
       style="stop-color:#EC008C"
       offset="0" /><stop
       id="stop89"
       style="stop-color:#CA098D"
       offset="0.1439" /><stop
       id="stop91"
       style="stop-color:#871A8F"
       offset="0.4453" /><stop
       id="stop93"
       style="stop-color:#572691"
       offset="0.6988" /><stop
       id="stop95"
       style="stop-color:#392E92"
       offset="0.8912" /><stop
       id="stop97"
       style="stop-color:#2E3192"
       offset="1" /></linearGradient><linearGradient
     y2="11.1342"
     x2="113.4254"
     y1="11.1342"
     x1="75.616699"
     gradientUnits="userSpaceOnUse"
     id="SVGID_7_"><stop
       id="stop102"
       style="stop-color:#49C0B6"
       offset="0.2011" /><stop
       id="stop104"
       style="stop-color:#3DB3B7"
       offset="0.3893" /><stop
       id="stop106"
       style="stop-color:#1C90BA"
       offset="0.7379" /><stop
       id="stop108"
       style="stop-color:#0072BC"
       offset="1" /></linearGradient><linearGradient
     y2="11.1342"
     x2="63.014198"
     y1="11.1342"
     x1="25.2057"
     gradientUnits="userSpaceOnUse"
     id="SVGID_8_"><stop
       id="stop113"
       style="stop-color:#FBB040"
       offset="0" /><stop
       id="stop115"
       style="stop-color:#DB801E"
       offset="0.5" /><stop
       id="stop117"
       style="stop-color:#D77220"
       offset="0.5999" /><stop
       id="stop119"
       style="stop-color:#CC4E26"
       offset="0.7878" /><stop
       id="stop121"
       style="stop-color:#BE1E2D"
       offset="1" /></linearGradient></defs>
<style
   type="text/css"
   id="style2">
	.st0{fill:#FFFFFF;}
	.st1{fill:#0066B2;}
	.st2{fill:#00A551;}
	.st3{fill:#EC1C24;}
	.st4{fill:#231F20;}
	.st5{fill:#221F1F;}
</style>

<g
   id="g174"><g
     transform="matrix(5.4405692,0,0,5.4405692,-735.88069,376.81524)"
     id="g3182"><path
       style="fill:#002561"
       id="path7"
       d="m 142.4,33.4 h -5.2 c 0,0 0,-14.5 0,-19.8 2.3,-1.3 5.8,-2 9.1,-2 2.3,0 4,0.5 5.1,1.2 1.9,-0.7 4.2,-1.2 6.4,-1.2 6.8,0 7.8,3.7 7.8,8.1 v 13.7 h -5.3 V 20.1 c 0,-2.8 -0.7,-4.3 -3.6,-4.3 -0.8,0 -2.1,0.2 -3,0.7 0.2,1 0.3,2 0.3,3.1 v 13.7 h -5.3 V 20.1 c 0,-2.7 -0.6,-4.3 -3.5,-4.3 -0.9,0 -2.2,0.2 -2.8,0.6 0,1.3 0,17 0,17 z"
       class="st0" /><path
       style="fill:#002561"
       id="path9"
       d="m 169.4,22.6 c 0,-7.8 2.4,-11.1 9.5,-11.1 7.7,0 9.3,4.1 9.3,10.6 0,0.6 0,1.1 -0.1,1.7 -2.4,0.4 -7.1,0.9 -10,1.1 l -3.5,0.2 c 0.2,3.4 1.9,4.2 5,4.2 2.8,0 5.4,-0.3 7.6,-0.6 l 0.4,4.1 c -2.2,0.4 -5.1,0.8 -9.2,0.8 -7.1,0.1 -9,-4.6 -9,-11 z m 8.7,-1.3 c 1.4,-0.1 3.5,-0.3 4.7,-0.4 0,-0.2 0,-0.6 0,-0.9 0,-2.8 -1,-4.4 -4,-4.4 -3.9,0 -4.4,2.5 -4.4,5.8 z"
       class="st0" /><path
       style="fill:#002561"
       id="path11"
       d="m 204.7,3.5 h 5.3 c 0,0 0,25.5 0,28.1 -2.4,1.4 -5.8,2 -8.7,2 -7,0 -10,-2.6 -10,-11.1 0,-8.3 2.9,-11.1 9.4,-11.1 1.3,0 2.8,0.2 4,0.5 z m -3,12.3 c -5,0 -5.2,2.9 -5.2,6.8 0,3.5 0.2,6.9 4.7,6.9 1.2,0 2.6,-0.2 3.4,-0.6 0,-1.3 0,-12.6 0,-12.6 -0.8,-0.3 -2,-0.5 -2.9,-0.5 z"
       class="st0" /><path
       style="fill:#002561"
       id="path13"
       d="m 214,6.3 c 0,-2.2 0.7,-3 3.1,-3 2.3,0 3.1,0.8 3.1,3 0,2.2 -0.7,3 -3.1,3 -2.4,0 -3.1,-0.8 -3.1,-3 z m 0.5,5.5 h 5.3 v 21.5 h -5.3 z"
       class="st0" /><path
       style="fill:#002561"
       id="path15"
       d="m 223.7,26.8 c 0,-3.8 1.6,-6.2 5.8,-6.8 2.2,-0.4 4.4,-0.4 6.8,-0.5 0,-2.5 -1.1,-3.6 -3.9,-3.6 -2.5,0 -5.3,0.3 -7.5,0.6 l -0.4,-4 c 2.2,-0.4 5.2,-0.8 8.3,-0.8 4.7,0 8.6,1.3 8.6,6.9 0,0 0,11.3 0,13.2 -2.3,1.3 -5.8,2 -9.6,2 -5.8,-0.1 -8.1,-2.4 -8.1,-7 z m 12.6,-3.9 c -1.6,0.1 -3.4,0.1 -4.9,0.5 -1.8,0.4 -2.6,1.1 -2.6,3.3 0,2.3 1.3,2.9 3.6,2.9 1.2,0 2.7,-0.1 3.9,-0.6 0,-1.2 0,-6.1 0,-6.1 z"
       class="st0" /><path
       style="fill:#002561"
       id="path17"
       d="m 260.3,32.8 c -1.8,0.5 -4.1,0.8 -6.9,0.8 -7.1,0 -8.2,-5.5 -8.2,-11.3 0,-7 1.6,-10.9 9.4,-10.9 2.4,0 4.2,0.4 5.7,0.8 l -0.4,3.9 c -1.3,-0.3 -2.5,-0.5 -3.8,-0.5 -4.9,0 -5.5,1.5 -5.5,6.6 0,4.8 0.2,6.9 5.5,6.9 1.3,0 2.5,-0.2 3.8,-0.5 z"
       class="st0" /><path
       style="fill:#002561"
       id="path19"
       d="m 262.3,22.6 c 0,-8 2.5,-11.1 9.5,-11.1 7,0 9.5,3.1 9.5,11.1 0,8 -2.5,11.1 -9.5,11.1 -7,0 -9.5,-3 -9.5,-11.1 z m 13.6,0 c 0,-5.2 -0.9,-6.7 -4.2,-6.7 -3.3,0 -4.2,1.4 -4.2,6.7 0,5.4 0.9,6.7 4.2,6.7 3.4,0 4.2,-1.5 4.2,-6.7 z"
       class="st0" /><path
       style="fill:#002561"
       id="path21"
       d="m 284.8,33.4 c 0,0 0,-16.6 0,-19.8 2.4,-1.4 5.8,-2 8.7,-2 0.8,0 1.5,0 2.1,0.1 l -0.4,4.3 c -0.4,-0.1 -1,-0.1 -1.5,-0.1 -1.2,0 -2.8,0.2 -3.6,0.7 0,1.5 0,16.8 0,16.8 z"
       class="st0" /><path
       style="fill:#002561"
       id="path23"
       d="m 303.6,41.3 h -5.3 c 0,0 0,-26.1 0,-27.8 2.4,-1.4 5.8,-2 8.7,-2 7,0 10,2.6 10,11.1 0,8.3 -2.9,11.1 -9.4,11.1 -1.3,0 -2.8,-0.2 -4,-0.5 z m 3,-11.9 c 5,0 5.2,-2.9 5.2,-6.8 0,-3.5 -0.2,-6.9 -4.7,-6.9 -1.2,0 -2.6,0.2 -3.4,0.6 0,2.4 0,12.6 0,12.6 0.8,0.3 1.9,0.5 2.9,0.5 z"
       class="st0" /></g><g
     transform="scale(7.9365079)"
     id="g3193"><g
       id="g940"
       transform="matrix(1,0,0,1.0000011,0,-2.4481962e-5)"><polygon
         class="st1"
         points="37.8,22.3 25.2,22.3 12.6,22.3 18.9,11.1 25.2,0 31.5,11.1 "
         id="polygon30-9"
         style="fill:#ff0090;fill-opacity:1" /><polygon
         class="st2"
         points="63,22.3 75.6,22.3 88.2,22.3 81.9,33.4 75.6,44.5 69.3,33.4 "
         id="polygon45-7"
         style="fill:#007b51;fill-opacity:1" /><polygon
         class="st3"
         points="88.2,22.3 75.6,22.3 63,22.3 69.3,11.1 75.6,0 81.9,11.1 "
         id="polygon60-9"
         style="fill:#7bcd50;fill-opacity:1" /><polygon
         class="st4"
         points="63,22.3 75.6,44.5 50.4,44.5 37.8,22.3 "
         id="polygon73-1"
         style="fill:#ff5a1a;fill-opacity:1" /><polygon
         class="st5"
         points="113.4,22.3 126,44.5 100.8,44.5 88.2,22.3 "
         id="polygon84-8"
         style="fill:#0075c1;fill-opacity:1" /><polygon
         class="st6"
         points="12.6,22.3 0,44.5 25.2,44.5 37.8,22.3 "
         id="polygon99-1"
         style="fill:#812895;fill-opacity:1" /><polygon
         class="st7"
         points="100.8,0 113.4,22.3 88.2,22.3 75.6,0 "
         id="polygon110-0"
         style="fill:#00bab6;fill-opacity:1" /><polygon
         class="st8"
         points="50.4,0 63,22.3 37.8,22.3 25.2,0 "
         id="polygon123-7"
         style="fill:#ff9500;fill-opacity:1" /></g></g></g></svg>
